<svg xmlns="http://www.w3.org/2000/svg" width="46" height="40" viewBox="0 0 46 40">
    <g fill="none" fill-rule="evenodd" stroke="#000" stroke-width="1.6">
        <path d="M20.62 38.402h4.76v-8h-4.76zM6.345 27.202h6.345v-9.6H6.345zM9.517 17.602v9.6"/>
        <path d="M1.586 38.402h42.828v-24H1.586zM3.966 14.402h9.517v-3.2H3.966zM32.517 14.402h9.517v-3.2h-9.517zM4.759 27.202h9.517"/>
        <path d="M19.828 27.202h6.344v-9.6h-6.344zM23 17.602v9.6M18.241 27.202h9.518M33.31 27.202h6.345v-9.6H33.31zM36.483 17.602v9.6M31.724 27.202h9.517M29.345 14.402h-12.69v-3.2l6.345-8 6.345 8zM23 1.602v1.6M6.345 35.202h6.345v-4.8H6.345zM33.31 35.202h6.345v-4.8H33.31zM0 38.402h1.586M44.414 38.402H46M37.276 11.202V.002M37.276 4.802h6.345v-3.2h-6.345zM8.724 11.202V.002M8.724 4.802h6.345v-3.2H8.724z"/>
    </g>
</svg>
