<svg xmlns="http://www.w3.org/2000/svg" width="48" height="34" viewBox="0 0 48 34"><g stroke="#000" stroke-width=".1"><path d="M18.865 19.254c3.907-2.067 5.912-6.561 4.858-10.887C22.67 4.04 18.828 1 14.418 1c-4.411 0-8.252 3.04-9.306 7.367-1.054 4.326.951 8.82 4.858 10.887-5.368 1.91-8.962 7.03-8.97 12.778 0 .535.43.968.958.968.53 0 .959-.433.959-.968 0-6.415 5.148-11.616 11.5-11.616 6.35 0 11.5 5.2 11.5 11.616 0 .535.429.968.958.968.53 0 .958-.433.958-.968-.007-5.748-3.6-10.868-8.968-12.778zM6.75 10.736c0-4.277 3.432-7.744 7.667-7.744 4.234 0 7.666 3.467 7.666 7.744 0 4.277-3.432 7.744-7.666 7.744a7.628 7.628 0 0 1-5.421-2.268 7.784 7.784 0 0 1-2.246-5.476z"/><path d="M38.558 15.16a7.64 7.64 0 0 0 3.3-8.621C40.9 3.258 37.869 1 34.42 1c-3.448 0-6.48 2.258-7.44 5.539a7.64 7.64 0 0 0 3.301 8.62A12.622 12.622 0 0 0 24 19.925c.504.422.98.876 1.427 1.358 2.53-3.972 7.406-5.806 11.959-4.5 4.552 1.308 7.683 5.441 7.678 10.138 0 .53.433.959.968.959.535 0 .968-.43.968-.96-.009-5.298-3.393-10.013-8.442-11.76zm-9.952-6.464c0-3.178 2.6-5.755 5.809-5.755 3.208 0 5.808 2.577 5.808 5.755 0 3.179-2.6 5.756-5.808 5.756-3.208 0-5.809-2.577-5.809-5.756z"/></g></svg>